<svg width="24" height="24" viewBox="0 0 24 24" fill="none" xmlns="http://www.w3.org/2000/svg">
<g id="ice-cream 1">
<path id="Vector" d="M6.21606 11.868C6.21663 12.2892 6.38394 12.6929 6.6814 12.9911C6.97886 13.2892 7.38228 13.4574 7.80342 13.459C7.69202 13.6413 7.63221 13.8504 7.63038 14.064V14.28C7.62971 14.5468 7.72044 14.8058 7.88747 15.0138C8.0545 15.2218 8.28775 15.3664 8.54838 15.4234L10.3441 20.9206C10.4114 21.1241 10.5414 21.3011 10.7155 21.4261C10.8896 21.5511 11.0988 21.6178 11.3132 21.6166H12.685C12.8994 21.6178 13.1086 21.5511 13.2827 21.4261C13.4568 21.3011 13.5869 21.1241 13.6541 20.9206L15.451 15.4224C15.7117 15.3656 15.945 15.2213 16.1122 15.0135C16.2794 14.8056 16.3704 14.5468 16.37 14.28V14.064C16.3683 13.8502 16.3081 13.6409 16.1957 13.459C16.6171 13.4578 17.0208 13.2897 17.3185 12.9915C17.6161 12.6933 17.7836 12.2893 17.7841 11.868V11.7744C17.7837 11.5084 17.7037 11.2485 17.5544 11.0283C17.4051 10.8081 17.1934 10.6376 16.9465 10.5386C17.1516 10.2233 17.2729 9.86084 17.2988 9.48554C17.3247 9.11024 17.2544 8.73454 17.0945 8.39401C16.8733 7.92217 16.4913 7.5445 16.0169 7.32865C16.0762 7.05371 16.1061 6.77326 16.1062 6.49201C16.1062 5.40292 15.6736 4.35844 14.9035 3.58834C14.1334 2.81824 13.0889 2.3856 11.9998 2.3856C10.9107 2.3856 9.86626 2.81824 9.09616 3.58834C8.32606 4.35844 7.89342 5.40292 7.89342 6.49201C7.89347 6.77359 7.92348 7.05437 7.98294 7.32961C7.69471 7.46202 7.43835 7.65494 7.2313 7.89525C7.02425 8.13555 6.87136 8.41761 6.78302 8.72226C6.69467 9.02691 6.67295 9.34701 6.71932 9.6608C6.76569 9.97459 6.87906 10.2747 7.05174 10.5408C6.80552 10.6399 6.59448 10.8103 6.44561 11.03C6.29674 11.2498 6.21682 11.509 6.21606 11.7744V11.868ZM13.1074 20.742C13.0786 20.8305 13.0221 20.9075 12.9462 20.9614C12.8703 21.0153 12.7791 21.0434 12.686 21.0415H11.3141C11.2212 21.0425 11.1304 21.0141 11.0547 20.9602C10.9789 20.9063 10.9222 20.8299 10.8927 20.7418L9.16614 15.4594H14.834L13.1074 20.742ZM15.794 14.28C15.7949 14.4345 15.7357 14.5832 15.6289 14.6948C15.5222 14.8065 15.3762 14.8722 15.2218 14.8781C15.2182 14.8781 15.2146 14.8793 15.211 14.8795H15.2055C15.195 14.8802 15.1846 14.8815 15.1743 14.8834H8.82582C8.81558 14.8816 8.80524 14.8805 8.79486 14.88H8.7891C8.7855 14.88 8.7819 14.88 8.7783 14.8786C8.62387 14.8726 8.4778 14.8069 8.37101 14.6952C8.26422 14.5834 8.2051 14.4345 8.20614 14.28V14.064C8.20583 13.9815 8.22255 13.8998 8.25526 13.824C8.28797 13.7482 8.33596 13.68 8.39622 13.6236C8.50868 13.5188 8.65653 13.4604 8.81022 13.4599H15.1899C15.2659 13.4593 15.3412 13.4736 15.4116 13.5022C15.482 13.5308 15.5461 13.573 15.6001 13.6265C15.6613 13.6817 15.7102 13.7492 15.7435 13.8246C15.7768 13.9 15.7939 13.9816 15.7935 14.064L15.794 14.28ZM12.0025 2.9592C12.9385 2.96092 13.8355 3.33383 14.4969 3.99612C15.1583 4.65842 15.53 5.55602 15.5305 6.49201C15.5304 6.71423 15.5087 6.93592 15.4657 7.15392C15.4534 7.15176 15.44 7.15104 15.4275 7.14936C15.4114 7.14697 15.3946 7.14553 15.3781 7.14361C15.2825 7.13181 15.1863 7.12572 15.0901 7.12537C15.049 7.12463 15.008 7.12752 14.9674 7.13401C14.5608 7.1495 14.1676 7.28347 13.8361 7.51944C13.5931 7.68133 13.3859 7.89124 13.2272 8.13625C12.863 7.89487 12.4358 7.76614 11.9989 7.76614C11.562 7.76614 11.1347 7.89487 10.7705 8.13625C10.5665 7.82921 10.2906 7.57663 9.96683 7.40046C9.64301 7.22429 9.28107 7.12985 8.91246 7.12537C8.81764 7.12575 8.72292 7.13168 8.62878 7.14313C8.61102 7.14529 8.59278 7.14697 8.5755 7.14961C8.55822 7.15225 8.54718 7.15225 8.5335 7.15465C8.49023 6.93642 8.46844 6.71448 8.46846 6.49201C8.46954 5.55517 8.84226 4.65704 9.50481 3.99471C10.1674 3.33238 11.0656 2.95997 12.0025 2.9592ZM8.41062 7.77912C8.42046 7.776 8.42934 7.77049 8.43894 7.76641L8.35734 7.49592L8.47014 7.75224L8.47254 7.75753C8.70482 7.69557 8.94783 7.6851 9.18458 7.72685C9.42133 7.76859 9.6461 7.86155 9.84318 7.99921C10.0974 8.16785 10.2966 8.40733 10.4161 8.68801C10.4344 8.73051 10.4626 8.76797 10.4985 8.79723C10.5343 8.82649 10.5767 8.84669 10.622 8.85611C10.6673 8.86552 10.7142 8.86389 10.7587 8.85134C10.8033 8.83879 10.8441 8.81569 10.8778 8.78401C11.1826 8.49946 11.5841 8.3412 12.001 8.3412C12.418 8.3412 12.8194 8.49946 13.1242 8.78401C13.148 8.80567 13.1754 8.82304 13.2051 8.83537C13.2121 8.83849 13.219 8.84161 13.2262 8.84425C13.2554 8.85476 13.2861 8.86059 13.3172 8.86153H13.321C13.3773 8.86135 13.4323 8.84469 13.4792 8.81359C13.5262 8.7825 13.5629 8.73834 13.585 8.68657C13.7059 8.40264 13.9076 8.16057 14.1651 7.99057C14.4134 7.81325 14.709 7.71421 15.014 7.70617C15.0322 7.70561 15.0504 7.70336 15.0682 7.69945H15.0922C15.2381 7.69708 15.3836 7.7155 15.5242 7.75417L15.5521 7.76185C15.5645 7.76781 15.5773 7.77294 15.5905 7.7772C15.805 7.84432 16.0033 7.95532 16.1727 8.10315C16.3421 8.25098 16.4789 8.43241 16.5745 8.63593C16.6765 8.85375 16.7295 9.09136 16.7295 9.33193C16.7314 9.67102 16.627 10.0022 16.431 10.2789C16.2349 10.5555 15.9571 10.7638 15.6365 10.8744C15.464 10.9448 15.279 10.9793 15.0927 10.9759C14.6955 10.9769 14.312 10.8311 14.0158 10.5665C13.9981 10.5491 13.9791 10.533 13.9589 10.5185C13.8956 10.4725 13.8168 10.4529 13.7393 10.464C13.6938 10.4707 13.6504 10.4875 13.6123 10.5133C13.5742 10.539 13.5424 10.5731 13.5193 10.6128C13.5135 10.6224 13.5075 10.6334 13.5017 10.6418C13.4885 10.6583 13.4772 10.6762 13.4679 10.6951C13.357 10.9242 13.1938 11.1239 12.9914 11.2782C12.789 11.4324 12.5532 11.5369 12.3029 11.5831C12.2939 11.5846 12.2849 11.5866 12.2761 11.5891C12.1868 11.6093 12.0953 11.6174 12.0039 11.6131C11.6956 11.6141 11.3933 11.5278 11.132 11.3641C10.8708 11.2004 10.6612 10.966 10.5277 10.6882C10.5196 10.6713 10.51 10.6552 10.4989 10.6402L10.4967 10.6356C10.4888 10.62 10.4806 10.6044 10.4727 10.5902C10.4512 10.5546 10.4223 10.524 10.3879 10.5006C10.3534 10.4772 10.3144 10.4615 10.2733 10.4547C10.2322 10.4478 10.1902 10.45 10.15 10.4609C10.1099 10.4719 10.0726 10.4915 10.0407 10.5182C10.0219 10.5321 10.0043 10.5474 9.9879 10.5641C9.69443 10.8319 9.31096 10.9795 8.91366 10.9776C8.52259 10.9787 8.14403 10.8398 7.84641 10.5862C7.54878 10.3325 7.35173 9.98068 7.29085 9.59437C7.22998 9.20806 7.30931 8.81273 7.5145 8.47981C7.71969 8.14689 8.03721 7.89835 8.40966 7.77912H8.41062ZM6.79206 11.7744C6.79138 11.587 6.86089 11.4061 6.9869 11.2673C7.11291 11.1285 7.28631 11.042 7.47294 11.0246C7.48494 11.0347 7.49694 11.0436 7.51014 11.0537C7.5327 11.0719 7.5555 11.0897 7.57878 11.1072C7.61078 11.1309 7.64278 11.1538 7.67478 11.1761C7.69878 11.1922 7.72278 11.2078 7.74678 11.2241C7.78014 11.2447 7.81422 11.2642 7.84854 11.2829C7.87254 11.2968 7.89894 11.3105 7.92486 11.3232C7.9599 11.3407 7.99686 11.3566 8.0319 11.3712C8.0583 11.3825 8.08422 11.394 8.11086 11.4043C8.14806 11.4187 8.18574 11.431 8.22366 11.4434C8.2503 11.4521 8.2767 11.4612 8.30382 11.4689C8.34342 11.4802 8.38398 11.489 8.42382 11.4982C8.44974 11.5039 8.47542 11.5106 8.50182 11.5154C8.5467 11.5238 8.59206 11.5294 8.63766 11.5351C8.66022 11.5378 8.6823 11.5418 8.7051 11.544C8.7735 11.5502 8.84238 11.5538 8.91198 11.5538C9.34926 11.5542 9.77652 11.4229 10.1381 11.177C10.3381 11.4897 10.6139 11.7467 10.9399 11.9241C11.2658 12.1016 11.6313 12.1937 12.0025 12.192C12.1419 12.196 12.2813 12.1816 12.4169 12.149C12.7106 12.0931 12.9897 11.9779 13.2373 11.8105C13.4849 11.643 13.6957 11.4268 13.8569 11.1751C14.2209 11.4225 14.651 11.5545 15.091 11.5538C15.3488 11.558 15.6048 11.51 15.8437 11.4127C15.9111 11.3887 15.9766 11.3616 16.0409 11.3316C16.0625 11.3218 16.0829 11.31 16.1043 11.2992C16.1465 11.2778 16.1885 11.2558 16.2296 11.2315C16.2536 11.2174 16.2759 11.2022 16.2987 11.1874C16.3361 11.1634 16.3729 11.1394 16.4086 11.1118C16.4312 11.0952 16.4533 11.0779 16.4751 11.0602C16.4914 11.0472 16.5087 11.0362 16.5248 11.022C16.7117 11.0402 16.8852 11.1274 17.0115 11.2664C17.1378 11.4055 17.2079 11.5866 17.2081 11.7744V11.868C17.2077 12.1372 17.1007 12.3952 16.9104 12.5855C16.72 12.7758 16.462 12.8829 16.1929 12.8832H7.80726C7.53811 12.8829 7.28008 12.7758 7.08976 12.5855C6.89944 12.3952 6.79238 12.1372 6.79206 11.868V11.7744Z" fill="black"/>
<path id="Vector_2" d="M8.47065 7.752C8.46081 7.75776 8.44977 7.76136 8.43945 7.76616C8.45037 7.76267 8.46084 7.75792 8.47065 7.752Z" fill="black"/>
</g>
</svg>
